<svg width="40" height="40" viewBox="0 0 40 40" fill="none" xmlns="http://www.w3.org/2000/svg">
<path d="M0.231884 2.125L0 0L2.08696 0.5L3.5942 1.375L5.56522 2.75L7.42029 4.5L12.5217 12.25L15.6522 16.875L19.1304 20.5L21.4493 21.625L25.0435 18.875H26.7826L28.058 20.125V21.375L28.1739 22.125L27.1304 22.25L25.971 24.25L26.087 25.125L27.942 27.125L27.3623 28.25L26.7826 29.375L26.5507 30L26.4348 30.875L26.7826 31.875L28.1739 33.25L29.7971 34.125L32.6957 35.875L31.3043 37.5L28.8696 39.125L25.5072 40H22.2609L17.0435 39.625L10.6667 39L10.8986 38L11.5942 37L12.8696 35.875L15.6522 34.125L18.4348 31.5L18.8986 30.125L17.1594 28.375L12.5217 24.625L9.15942 21.5L6.72464 18.25L5.7971 17.5L3.82609 16.25L3.36232 13.25L2.89855 10.5L1.73913 8.375L0.927536 7.25L1.50725 6.375V5.25L0.927536 3.75L0.231884 2.125Z" fill="#FFCF00"/>
<path d="M26.6667 24.875L28.1739 26.375L28.2899 26.5L30.3768 23.75L32.3478 22L37.3333 17.125L39.4203 14L40 11.75V9.625L39.5362 6.875L38.6087 4.625L38.1449 4.125L38.029 4.625L37.913 7.625L37.5652 8.625H37.2174L36.7536 7.75H35.942L35.5942 8.875L33.7391 11L30.8406 14.25L28.6377 17.625L27.942 19.125L28.6377 20.375L28.7536 22L29.1014 22.625L27.3623 22.875L26.7826 23.875L26.5507 24.4061L26.6667 24.875Z" fill="#FFCF00"/>
</svg>
