<svg width="126" height="40" viewBox="0 0 126 40" fill="none" xmlns="http://www.w3.org/2000/svg">
<path d="M0.231884 2.125L0 0L2.08696 0.5L3.5942 1.375L5.56522 2.75L7.42029 4.5L12.5217 12.25L15.6522 16.875L19.1304 20.5L21.4493 21.625L25.0435 18.875H26.7826L28.058 20.125V21.375L28.1739 22.125L27.1304 22.25L25.971 24.25L26.087 25.125L27.942 27.125L27.3623 28.25L26.7826 29.375L26.5507 30L26.4348 30.875L26.7826 31.875L28.1739 33.25L29.7971 34.125L32.6957 35.875L31.3043 37.5L28.8696 39.125L25.5072 40H22.2609L17.0435 39.625L10.6667 39L10.8986 38L11.5942 37L12.8696 35.875L15.6522 34.125L18.4348 31.5L18.8986 30.125L17.1594 28.375L12.5217 24.625L9.15942 21.5L6.72464 18.25L5.7971 17.5L3.82609 16.25L3.36232 13.25L2.89855 10.5L1.73913 8.375L0.927536 7.25L1.50725 6.375V5.25L0.927536 3.75L0.231884 2.125Z" fill="#FFCF00"/>
<path d="M26.6667 24.875L28.1739 26.375L28.2899 26.5L30.3768 23.75L32.3478 22L37.3333 17.125L39.4203 14L40 11.75V9.625L39.5362 6.875L38.6087 4.625L38.1449 4.125L38.029 4.625L37.913 7.625L37.5652 8.625H37.2174L36.7536 7.75H35.942L35.5942 8.875L33.7391 11L30.8406 14.25L28.6377 17.625L27.942 19.125L28.6377 20.375L28.7536 22L29.1014 22.625L27.3623 22.875L26.7826 23.875L26.5507 24.4061L26.6667 24.875Z" fill="#FFCF00"/>
<path d="M46.4055 22.5078C46.3459 21.9496 46.0945 21.5149 45.6513 21.2038C45.2124 20.8928 44.6413 20.7372 43.9382 20.7372C43.4439 20.7372 43.0199 20.8118 42.6662 20.9609C42.3125 21.1101 42.0419 21.3125 41.8544 21.5682C41.6669 21.8239 41.571 22.1158 41.5668 22.4439C41.5668 22.7166 41.6286 22.9531 41.7521 23.1534C41.88 23.3537 42.0526 23.5241 42.2699 23.6648C42.4872 23.8011 42.728 23.9162 42.9922 24.0099C43.2564 24.1037 43.5227 24.1825 43.7912 24.2464L45.0185 24.5533C45.5128 24.6683 45.9879 24.8239 46.4439 25.0199C46.9041 25.2159 47.3153 25.4631 47.6776 25.7614C48.044 26.0597 48.3338 26.4197 48.5469 26.8416C48.7599 27.2635 48.8665 27.7578 48.8665 28.3246C48.8665 29.0916 48.6705 29.767 48.2784 30.3509C47.8864 30.9304 47.3196 31.3842 46.5781 31.7124C45.8409 32.0362 44.9482 32.1982 43.8999 32.1982C42.8814 32.1982 41.9972 32.0405 41.2472 31.7251C40.5014 31.4098 39.9176 30.9496 39.4957 30.3445C39.0781 29.7393 38.8523 29.0021 38.8182 28.1328H41.1513C41.1854 28.5888 41.326 28.968 41.5732 29.2706C41.8203 29.5732 42.142 29.799 42.5384 29.9482C42.9389 30.0973 43.3864 30.1719 43.8807 30.1719C44.3963 30.1719 44.848 30.0952 45.2358 29.9418C45.6278 29.7841 45.9347 29.5668 46.1562 29.2898C46.3778 29.0085 46.4908 28.6804 46.495 28.3054C46.4908 27.9645 46.3906 27.6832 46.1946 27.4616C45.9986 27.2358 45.7237 27.0483 45.37 26.8991C45.0206 26.7457 44.6115 26.6094 44.1428 26.4901L42.6534 26.1065C41.5753 25.8295 40.723 25.4098 40.0966 24.8473C39.4744 24.2805 39.1634 23.5284 39.1634 22.5909C39.1634 21.8196 39.3722 21.1442 39.7898 20.5646C40.2116 19.9851 40.7848 19.5355 41.5092 19.2159C42.2337 18.892 43.054 18.7301 43.9702 18.7301C44.8991 18.7301 45.7131 18.892 46.4119 19.2159C47.1151 19.5355 47.6669 19.9808 48.0675 20.5518C48.468 21.1186 48.6747 21.7706 48.6875 22.5078H46.4055ZM62.1859 23.326H59.7953C59.7271 22.9339 59.6014 22.5866 59.4181 22.2841C59.2349 21.9773 59.0069 21.7173 58.7342 21.5043C58.4615 21.2912 58.1504 21.1314 57.801 21.0249C57.4558 20.9141 57.0829 20.8587 56.6824 20.8587C55.9707 20.8587 55.34 21.0376 54.7903 21.3956C54.2406 21.7493 53.8102 22.2692 53.4991 22.9553C53.188 23.6371 53.0325 24.4702 53.0325 25.4545C53.0325 26.456 53.188 27.2997 53.4991 27.9858C53.8145 28.6676 54.2449 29.1832 54.7903 29.5327C55.34 29.8778 55.9686 30.0504 56.676 30.0504C57.068 30.0504 57.4345 29.9993 57.7754 29.897C58.1206 29.7905 58.4295 29.6349 58.7022 29.4304C58.9792 29.2259 59.2115 28.9744 59.399 28.6761C59.5907 28.3778 59.7228 28.0369 59.7953 27.6534L62.1859 27.6662C62.0964 28.2884 61.9025 28.8722 61.6042 29.4176C61.3102 29.9631 60.9245 30.4446 60.4473 30.8622C59.97 31.2756 59.4118 31.5994 58.7726 31.8338C58.1333 32.0639 57.4238 32.179 56.644 32.179C55.4934 32.179 54.4664 31.9126 53.563 31.38C52.6596 30.8473 51.948 30.0781 51.4281 29.0724C50.9082 28.0668 50.6483 26.8608 50.6483 25.4545C50.6483 24.044 50.9103 22.8381 51.4345 21.8366C51.9586 20.831 52.6724 20.0618 53.5758 19.5291C54.4792 18.9964 55.502 18.7301 56.644 18.7301C57.3727 18.7301 58.0502 18.8324 58.6767 19.0369C59.3031 19.2415 59.8613 19.5419 60.3514 19.9382C60.8414 20.3303 61.2441 20.8118 61.5595 21.3828C61.8791 21.9496 62.0879 22.5973 62.1859 23.326ZM64.3576 32V18.9091H66.729V24.451H72.7951V18.9091H75.1729V32H72.7951V26.4389H66.729V32H64.3576ZM89.4496 25.4545C89.4496 26.8651 89.1854 28.0732 88.657 29.0788C88.1328 30.0803 87.4169 30.8473 86.5092 31.38C85.6058 31.9126 84.581 32.179 83.4347 32.179C82.2884 32.179 81.2614 31.9126 80.3537 31.38C79.4503 30.843 78.7344 30.0739 78.206 29.0724C77.6818 28.0668 77.4197 26.8608 77.4197 25.4545C77.4197 24.044 77.6818 22.8381 78.206 21.8366C78.7344 20.831 79.4503 20.0618 80.3537 19.5291C81.2614 18.9964 82.2884 18.7301 83.4347 18.7301C84.581 18.7301 85.6058 18.9964 86.5092 19.5291C87.4169 20.0618 88.1328 20.831 88.657 21.8366C89.1854 22.8381 89.4496 24.044 89.4496 25.4545ZM87.0653 25.4545C87.0653 24.4616 86.9098 23.6243 86.5987 22.9425C86.2919 22.2564 85.8658 21.7386 85.3203 21.3892C84.7749 21.0355 84.1463 20.8587 83.4347 20.8587C82.723 20.8587 82.0945 21.0355 81.549 21.3892C81.0036 21.7386 80.5753 22.2564 80.2642 22.9425C79.9574 23.6243 79.804 24.4616 79.804 25.4545C79.804 26.4474 79.9574 27.2869 80.2642 27.973C80.5753 28.6548 81.0036 29.1726 81.549 29.5263C82.0945 29.8757 82.723 30.0504 83.4347 30.0504C84.1463 30.0504 84.7749 29.8757 85.3203 29.5263C85.8658 29.1726 86.2919 28.6548 86.5987 27.973C86.9098 27.2869 87.0653 26.4474 87.0653 25.4545ZM91.6916 32V18.9091H94.063V30.0121H99.8287V32H91.6916ZM104.06 32H101.529L106.138 18.9091H109.065L113.68 32H111.149L107.653 21.5938H107.55L104.06 32ZM104.143 26.8672H111.047V28.772H104.143V26.8672ZM115.404 32V18.9091H120.314C121.319 18.9091 122.163 19.0838 122.845 19.4332C123.531 19.7827 124.049 20.2727 124.398 20.9034C124.752 21.5298 124.929 22.2607 124.929 23.0959C124.929 23.9354 124.75 24.6641 124.392 25.282C124.038 25.8956 123.516 26.3707 122.826 26.7074C122.135 27.0398 121.287 27.206 120.282 27.206H116.785V25.2372H119.962C120.55 25.2372 121.032 25.1562 121.407 24.9943C121.782 24.8281 122.059 24.5874 122.238 24.272C122.421 23.9524 122.512 23.5604 122.512 23.0959C122.512 22.6314 122.421 22.2351 122.238 21.907C122.054 21.5746 121.775 21.3232 121.4 21.1527C121.025 20.978 120.542 20.8906 119.949 20.8906H117.776V32H115.404ZM122.167 26.0682L125.408 32H122.762L119.578 26.0682H122.167Z" fill="black"/>
</svg>
